<?xml version="1.0" encoding="utf-8"?>
<!-- Generator: Adobe Illustrator 15.0.2, SVG Export Plug-In . SVG Version: 6.00 Build 0)  -->
<!DOCTYPE svg PUBLIC "-//W3C//DTD SVG 1.1//EN" "http://www.w3.org/Graphics/SVG/1.1/DTD/svg11.dtd">
<svg version="1.1" id="圖層_1" xmlns="http://www.w3.org/2000/svg" xmlns:xlink="http://www.w3.org/1999/xlink" x="0px" y="0px"
	 width="900.874px" height="280px" viewBox="0 0 900.874 280" enable-background="new 0 0 900.874 280" xml:space="preserve">
<defs>
	<filter id="Adobe_OpacityMaskFilter" filterUnits="userSpaceOnUse" x="181.391" y="20.456" width="566" height="239.489">
		<feFlood  style="flood-color:white;flood-opacity:1" result="back"/>
		<feBlend  in="SourceGraphic" in2="back" mode="normal"/>
	</filter>
</defs>
<mask maskUnits="userSpaceOnUse" x="181.391" y="20.456" width="566" height="239.489" id="SVGID_1_">
	<g filter="url(#Adobe_OpacityMaskFilter)">
		<rect x="471.378" y="8.347" fill-rule="evenodd" clip-rule="evenodd" width="223.334" height="22"/>
		<rect x="224.711" y="247.68" fill-rule="evenodd" clip-rule="evenodd" width="314.5" height="22"/>
	</g>
</mask>
<g mask="url(#SVGID_1_)">
	<path d="M186.004,63.68l2.021,3.5l2.021-3.5l2.021-3.5h-3.671V43.784c0-12.312,10.016-22.328,22.328-22.328H715.54
		c12.311,0,22.328,10.017,22.328,22.328v19.17h1v-19.17c0-12.863-10.465-23.328-23.328-23.328H210.723
		c-12.863,0-23.328,10.465-23.328,23.328V60.18h-3.412L186.004,63.68z"/>
	<path d="M740.431,218.513l-2.021-3.5l-2.02,3.5l-2.021,3.5h3.498v14.604c0,12.312-10.016,22.328-22.328,22.328H210.722
		c-12.312,0-22.328-10.017-22.328-22.328v-19.17h-1v19.17c0,12.863,10.465,23.328,23.328,23.328h504.816
		c12.863,0,23.328-10.465,23.328-23.328v-14.604h3.586L740.431,218.513z"/>
	<polygon points="324.37,152.554 327.87,150.532 331.37,148.512 327.87,146.491 324.37,144.471 324.37,148.512 324.37,148.513 
		187.078,148.513 187.078,149.513 324.37,149.513 	"/>
	<polygon points="743.892,146.491 740.392,144.471 740.392,148.512 740.392,148.513 572.745,148.513 572.745,149.513 
		740.392,149.513 740.392,152.554 743.892,150.532 747.392,148.512 	"/>
	<polygon points="188.391,135.014 329.391,135.014 329.391,134.014 188.391,134.014 188.391,129.972 184.891,131.993 
		181.391,134.014 184.891,136.034 188.391,138.055 	"/>
	<polygon points="570.558,131.993 567.058,134.014 570.558,136.034 574.058,138.055 574.058,135.014 745.413,135.014 
		745.413,134.014 574.058,134.014 574.058,129.972 	"/>
</g>
<g>
	<circle fill-rule="evenodd" clip-rule="evenodd" fill="#F3EACC" cx="57.847" cy="128.674" r="49.344"/>
	<circle fill-rule="evenodd" clip-rule="evenodd" fill="#DEB631" cx="57.847" cy="128.674" r="49.344"/>
	<path fill="#DFC633" d="M16.254,132.121c0-25.371,20.566-45.938,45.937-45.938c10.452,0,20.083,3.497,27.803,9.376
		c-8.17-7.471-19.046-12.03-30.99-12.03c-25.37,0-45.938,20.566-45.938,45.937c0,14.919,7.117,28.171,18.134,36.562
		C22.017,157.629,16.254,145.549,16.254,132.121z"/>
	<g>
		<g>
			<path fill-rule="evenodd" clip-rule="evenodd" fill="#FFFFFF" d="M167.471,159.811c-0.373,0.021-0.661,0.047-0.951,0.05
				c-22.92,0.244-45.84,0.484-68.76,0.741c-0.653,0.008-0.987-0.144-1.224-0.811c-6.693-18.874-13.413-37.738-20.126-56.605
				c-0.063-0.177-0.116-0.356-0.214-0.659c1.402,0.228,2.723,0.436,4.042,0.658c14.147,2.387,28.293,4.775,42.439,7.165
				c7.82,1.319,15.639,2.647,23.463,3.945c0.584,0.097,0.804,0.424,1.012,0.883c4.34,9.535,8.685,19.067,13.03,28.599
				c2.302,5.049,4.607,10.096,6.909,15.145C167.212,159.188,167.321,159.459,167.471,159.811z M103.421,144.551
				c0-0.023,0-0.045,0-0.068c-0.705,0.008-1.435,0.141-2.106,0c-1.762-0.376-3.033,0.189-3.906,1.735
				c-0.013,0.021-0.048,0.038-0.052,0.06c-0.054,0.313-0.226,0.669-0.134,0.933c0.835,2.4,1.714,4.787,2.592,7.175
				c0.071,0.192,0.182,0.414,0.342,0.523c1.121,0.76,2.246,1.513,3.4,2.218c0.25,0.153,0.622,0.15,0.938,0.149
				c1.95-0.008,3.911-0.172,5.847-0.018c1.754,0.137,2.912-0.408,3.714-1.964c0.238-0.461,0.314-0.782,0.129-1.251
				c-0.832-2.115-1.628-4.243-2.454-6.361c-0.104-0.265-0.25-0.572-0.469-0.729c-1.836-1.313-3.609-2.792-6.141-2.338
				C104.576,144.713,103.989,144.579,103.421,144.551z M103.815,143.304c0,0.015,0,0.031,0,0.047c0.432-0.006,0.88-0.085,1.295,0
				c1.667,0.341,2.885-0.153,3.738-1.684c0.229-0.411,0.303-0.67,0.137-1.083c-0.505-1.254-1.087-2.492-1.438-3.79
				c-0.577-2.139-1.762-3.718-3.749-4.676c-0.589-0.284-1.212-0.598-1.846-0.669c-1.989-0.225-4.014-0.202-5.979-0.544
				c-1.651-0.287-2.756,0.246-3.61,1.545c-0.16,0.243-0.271,0.651-0.182,0.904c0.769,2.194,1.436,4.444,2.439,6.53
				c0.843,1.753,2.692,2.479,4.411,3.213c0.163,0.069,0.375,0.021,0.565,0.029C101.003,143.186,102.41,143.244,103.815,143.304z
				 M101.688,130.216c0.033,0.057,0.066,0.114,0.099,0.169c0.361-0.21,0.759-0.378,1.074-0.646c0.369-0.312,0.717-0.677,0.976-1.081
				c0.157-0.244,0.254-0.651,0.164-0.911c-0.442-1.277-1.07-2.5-1.419-3.798c-0.53-1.98-1.647-3.413-3.44-4.348
				c-0.563-0.293-1.12-0.703-1.721-0.799c-2.111-0.33-4.264-0.433-6.356-0.849c-1.498-0.297-2.56,0.1-3.462,1.223
				c-0.018,0.021-0.052,0.035-0.057,0.057c-0.066,0.28-0.247,0.6-0.17,0.835c0.418,1.285,1.033,2.521,1.333,3.829
				c0.541,2.357,1.885,3.991,3.999,5.052c0.498,0.25,1.007,0.586,1.535,0.641C96.718,129.844,99.205,130.015,101.688,130.216z
				 M123.23,157.081c0.649-0.007,1.315-0.11,1.946-0.003c1.606,0.275,2.579-0.4,3.228-1.821c0.197-0.433,0.279-0.744,0.083-1.191
				c-0.545-1.237-1.147-2.466-1.521-3.757c-0.608-2.096-1.813-3.637-3.744-4.606c-0.465-0.234-0.982-0.468-1.488-0.499
				c-1.809-0.109-3.641,0-5.432-0.23c-1.486-0.191-2.376,0.316-3.089,1.533c-0.256,0.438-0.374,0.752-0.172,1.251
				c0.861,2.132,1.666,4.285,2.513,6.422c0.112,0.283,0.297,0.585,0.534,0.768c2.82,2.187,2.824,2.181,6.41,2.144
				C122.743,157.087,122.986,157.083,123.23,157.081z M97.351,117.664c0.117-0.063,0.366-0.148,0.551-0.311
				c0.388-0.335,0.72-0.736,1.116-1.063c0.356-0.291,0.373-0.569,0.206-0.978c-0.611-1.502-1.261-2.995-1.746-4.54
				c-0.372-1.186-1.113-1.931-2.067-2.659c-1.285-0.984-2.623-1.609-4.25-1.76c-1.584-0.148-3.173-0.401-4.716-0.783
				c-1.344-0.335-2.422-0.148-3.332,0.902c-0.035,0.041-0.08,0.074-0.125,0.102c-0.373,0.222-0.377,0.506-0.231,0.887
				c0.464,1.213,0.996,2.41,1.311,3.662c0.532,2.115,1.671,3.684,3.616,4.676c0.477,0.241,0.9,0.703,1.392,0.775
				C91.775,116.98,94.489,117.297,97.351,117.664z M119.45,143.9c0,0,0-0.003,0-0.005c0.162,0.01,0.331-0.007,0.485,0.032
				c1.502,0.392,2.559-0.16,3.173-1.545c0.143-0.32,0.233-0.77,0.123-1.078c-0.422-1.198-1.024-2.334-1.396-3.545
				c-0.614-2.004-1.7-3.583-3.608-4.52c-0.515-0.252-1.061-0.531-1.614-0.595c-1.747-0.201-3.527-0.174-5.25-0.485
				c-1.511-0.273-2.571,0.094-3.296,1.407c-0.143,0.258-0.245,0.653-0.153,0.908c0.514,1.451,1.185,2.854,1.627,4.324
				c0.533,1.769,1.497,3.062,3.122,3.996c0.934,0.537,1.771,1.015,2.897,0.977C116.854,143.729,118.153,143.852,119.45,143.9z
				 M116.669,131.49c0.07-0.045,0.319-0.137,0.484-0.312c0.335-0.353,0.678-0.719,0.911-1.139c0.154-0.278,0.252-0.708,0.149-0.985
				c-0.537-1.445-1.217-2.84-1.709-4.298c-0.447-1.325-1.277-2.209-2.383-3.032c-1.122-0.836-2.286-1.239-3.639-1.349
				c-1.403-0.113-2.826-0.205-4.187-0.524c-1.375-0.324-2.357,0.023-3.086,1.163c-0.156,0.245-0.263,0.645-0.176,0.898
				c0.411,1.204,1.001,2.352,1.335,3.573c0.58,2.123,1.729,3.732,3.707,4.729c0.451,0.226,0.888,0.598,1.359,0.647
				C111.775,131.113,114.126,131.277,116.669,131.49z M131.994,145.548c0-0.024,0-0.05,0-0.073
				c-0.623,0.006-1.268,0.121-1.865-0.003c-1.343-0.278-2.186,0.196-2.78,1.402c-0.226,0.458-0.314,0.797-0.106,1.27
				c0.523,1.188,1.01,2.394,1.495,3.601c1.221,3.039,1.208,3.053,3.939,4.832c0.357,0.232,0.843,0.365,1.272,0.373
				c1.571,0.028,3.152-0.126,4.712,0.001c1.339,0.106,2.099-0.351,2.611-1.561c0.231-0.55,0.299-0.955,0.037-1.497
				c-0.528-1.098-1.087-2.2-1.429-3.36c-0.622-2.108-1.95-3.556-3.825-4.573c-0.272-0.149-0.589-0.275-0.893-0.293
				C134.107,145.596,133.05,145.582,131.994,145.548z M111.888,119.516c0.095-0.068,0.303-0.179,0.461-0.338
				c0.324-0.325,0.668-0.646,0.916-1.027c0.143-0.222,0.228-0.597,0.142-0.832c-0.417-1.142-0.979-2.234-1.341-3.393
				c-0.566-1.807-1.595-3.166-3.231-4.154c-0.711-0.429-1.389-0.771-2.211-0.889c-1.739-0.251-3.491-0.467-5.201-0.858
				c-1.156-0.267-1.992-0.086-2.784,0.817c-0.388,0.444-0.459,0.746-0.247,1.262c0.59,1.424,1.204,2.844,1.668,4.312
				c0.39,1.231,1.074,2.129,2.181,2.767c0.721,0.415,1.351,1.168,2.107,1.31C106.792,118.941,109.275,119.179,111.888,119.516z
				 M131.512,144.387c0-0.008,0.001-0.018,0.001-0.024c0.676,0.037,1.358,0.029,2.026,0.127c1.104,0.16,1.841-0.124,2.386-1.215
				c0.324-0.643,0.381-1.084,0.088-1.699c-0.51-1.074-1.041-2.153-1.401-3.28c-0.556-1.736-1.553-3.061-3.16-3.912
				c-0.488-0.258-0.985-0.605-1.508-0.672c-1.665-0.205-3.356-0.211-5.014-0.461c-1.258-0.19-2.106,0.113-2.717,1.249
				c-0.211,0.394-0.313,0.678-0.129,1.102c0.605,1.388,1.261,2.764,1.734,4.198c0.498,1.513,1.288,2.706,2.714,3.459
				c0.379,0.2,0.7,0.509,1.071,0.728c0.223,0.129,0.489,0.239,0.742,0.254C129.399,144.311,130.456,144.342,131.512,144.387z
				 M129.244,132.564c0.583,0.229,1.038-0.096,1.363-0.721c0.1-0.19,0.232-0.369,0.377-0.528c0.309-0.341,0.339-0.666,0.136-1.101
				c-0.515-1.102-1.058-2.205-1.434-3.358c-0.563-1.724-1.531-3.066-3.133-3.936c-0.443-0.239-0.868-0.616-1.338-0.689
				c-1.791-0.278-3.615-0.363-5.39-0.711c-1.175-0.231-1.869,0.134-2.501,1.047c-0.269,0.392-0.337,0.657-0.147,1.083
				c0.44,0.988,0.915,1.975,1.217,3.008c0.654,2.239,1.915,3.949,4.007,5.014c0.328,0.166,0.678,0.354,1.032,0.39
				C125.32,132.25,127.21,132.393,129.244,132.564z M143.97,145.973l0.001-0.012c-0.568-0.02-1.149,0.031-1.7-0.074
				c-1.078-0.204-1.692,0.226-2.138,1.188c-0.245,0.525-0.377,0.918-0.098,1.487c0.561,1.138,1.124,2.292,1.503,3.497
				c0.608,1.932,1.728,3.383,3.524,4.292c0.458,0.233,0.984,0.45,1.484,0.463c1.594,0.042,3.191-0.015,4.787-0.032
				c1.078-0.012,2.116-1.661,1.668-2.671c-0.801-1.801-1.597-3.606-2.435-5.392c-0.173-0.369-0.496-0.682-0.795-0.975
				c-1.389-1.354-3.032-1.999-4.992-1.745C144.516,146.033,144.24,145.983,143.97,145.973z M113.741,110.062
				c-0.204,0.188-0.477,0.505-0.809,0.733c-0.725,0.503-0.68,1.069-0.336,1.794c0.498,1.05,0.974,2.121,1.327,3.226
				c0.501,1.566,1.363,2.795,2.831,3.564c0.681,0.354,1.341,0.851,2.067,0.992c1.617,0.316,3.286,0.365,4.902,0.687
				c1.093,0.22,1.765-0.081,2.363-0.969c0.297-0.442,0.364-0.765,0.149-1.241c-0.659-1.453-1.243-2.942-1.923-4.385
				c-0.855-1.819-2.388-2.909-4.277-3.347C118.035,110.654,115.981,110.426,113.741,110.062z M143.73,144.86
				c0.812,0.032,1.624,0.06,2.436,0.1c0.975,0.05,2.042-1.514,1.641-2.426c-0.489-1.116-1.102-2.19-1.47-3.343
				c-0.614-1.926-1.888-3.226-3.559-4.22c-0.223-0.134-0.48-0.263-0.731-0.286c-1.861-0.169-3.724-0.319-5.587-0.457
				c-0.951-0.07-1.998,1.406-1.623,2.276c0.814,1.887,1.631,3.772,2.463,5.652c0.105,0.235,0.269,0.479,0.471,0.631
				c0.777,0.588,1.571,1.156,2.381,1.694c0.231,0.153,0.539,0.245,0.817,0.265C141.887,144.811,142.809,144.828,143.73,144.86z
				 M141.472,133.61c0.647,0.021,1.632-1.545,1.353-2.175c-0.637-1.436-1.388-2.829-1.905-4.306c-0.6-1.712-2.145-2.353-3.387-3.348
				c-0.113-0.088-0.31-0.082-0.469-0.102c-1.881-0.235-3.761-0.47-5.643-0.7c-0.771-0.094-1.833,1.321-1.529,2.048
				c0.44,1.048,0.997,2.06,1.325,3.14c0.633,2.088,1.924,3.576,3.786,4.622c0.229,0.129,0.472,0.292,0.721,0.315
				C137.639,133.291,139.555,133.446,141.472,133.61z M155.246,146.391c0-0.009,0-0.014,0-0.021
				c-0.703-0.03-1.405-0.066-2.109-0.086c-1.083-0.031-2.002,1.391-1.552,2.405c0.538,1.211,1.188,2.382,1.606,3.633
				c0.6,1.79,1.711,3.089,3.338,3.968c0.404,0.218,0.886,0.393,1.337,0.403c1.406,0.039,2.814-0.011,4.222-0.027
				c1.055-0.011,2.004-1.544,1.551-2.527c-0.814-1.768-1.634-3.534-2.471-5.291c-0.123-0.257-0.332-0.486-0.542-0.684
				c-1.373-1.297-2.94-2.068-4.894-1.783C155.573,146.405,155.408,146.388,155.246,146.391z M126.251,112.104
				c-0.22,0.232-0.515,0.585-0.851,0.892c-0.422,0.388-0.447,0.755-0.191,1.273c0.491,0.994,0.989,2.001,1.316,3.054
				c0.553,1.777,1.62,3.089,3.217,3.978c0.525,0.292,1.096,0.58,1.678,0.677c1.655,0.275,3.324,0.478,4.994,0.646
				c0.297,0.029,0.756-0.155,0.91-0.39c0.317-0.487,1.049-0.82,0.636-1.662c-0.739-1.505-1.379-3.059-2.085-4.581
				c-0.656-1.412-1.958-2.326-3.252-2.756C130.669,112.586,128.535,112.479,126.251,112.104z M154.942,145.283
				c0,0.006,0,0.01,0,0.015c0.704,0.033,1.406,0.073,2.11,0.097c0.866,0.026,1.832-1.433,1.464-2.237
				c-0.766-1.673-1.43-3.41-2.37-4.979c-0.847-1.414-2.105-2.499-3.896-2.66c-1.403-0.125-2.806-0.24-4.208-0.365
				c-1.046-0.094-1.998,1.248-1.563,2.219c0.785,1.754,1.571,3.505,2.375,5.251c0.119,0.26,0.302,0.513,0.512,0.707
				c1.478,1.372,3.141,2.273,5.252,1.96C154.724,145.272,154.833,145.283,154.942,145.283z M142.845,124.404
				c-0.719-0.024-1.625,1.277-1.354,1.9c0.452,1.039,1.007,2.041,1.377,3.109c0.636,1.833,1.674,3.303,3.408,4.22
				c0.411,0.218,0.864,0.431,1.317,0.486c1.476,0.176,2.96,0.277,4.441,0.405c0.868,0.076,1.852-1.289,1.485-2.09
				c-0.765-1.67-1.374-3.449-2.387-4.953c-0.679-1.011-1.833-1.978-2.972-2.34C146.463,124.604,144.591,124.619,142.845,124.404z
				 M147.396,124.048c0.723,0.03,1.601-1.261,1.313-1.899c-0.543-1.209-1.152-2.39-1.652-3.615
				c-0.453-1.113-1.093-2.031-2.138-2.648c-0.55-0.325-1.051-0.846-1.64-0.977c-1.661-0.365-3.361-0.547-5.035-0.861
				c-0.584-0.109-0.837,0.18-1.1,0.575c-0.272,0.41-0.668,0.717-0.343,1.352c0.643,1.246,1.235,2.528,1.741,3.838
				c0.407,1.056,1.019,1.878,1.986,2.457c0.597,0.355,1.129,0.96,1.764,1.086C143.985,123.693,145.718,123.834,147.396,124.048z"/>
			<path fill-rule="evenodd" clip-rule="evenodd" fill="#14264D" d="M103.421,144.551c0.568,0.028,1.155,0.162,1.701,0.063
				c2.531-0.454,4.304,1.024,6.141,2.338c0.22,0.157,0.365,0.465,0.469,0.729c0.826,2.118,1.622,4.246,2.454,6.361
				c0.185,0.469,0.109,0.79-0.129,1.251c-0.803,1.556-1.96,2.101-3.714,1.964c-1.936-0.154-3.897,0.01-5.847,0.018
				c-0.316,0.001-0.688,0.004-0.938-0.149c-1.154-0.705-2.28-1.458-3.4-2.218c-0.161-0.109-0.271-0.331-0.342-0.523
				c-0.878-2.388-1.757-4.774-2.592-7.175c-0.092-0.264,0.08-0.619,0.134-0.933c0.003-0.021,0.039-0.038,0.052-0.06
				c0.873-1.546,2.145-2.111,3.906-1.735c0.672,0.141,1.401,0.008,2.106,0C103.42,144.506,103.42,144.527,103.421,144.551z"/>
			<path fill-rule="evenodd" clip-rule="evenodd" fill="#14264D" d="M103.815,143.304c-1.406-0.06-2.812-0.118-4.216-0.177
				c-0.19-0.008-0.402,0.04-0.565-0.029c-1.719-0.734-3.568-1.46-4.411-3.213c-1.003-2.086-1.671-4.336-2.439-6.53
				c-0.089-0.253,0.021-0.661,0.182-0.904c0.854-1.299,1.958-1.832,3.61-1.545c1.964,0.342,3.99,0.319,5.979,0.544
				c0.633,0.071,1.257,0.385,1.846,0.669c1.987,0.958,3.172,2.537,3.749,4.676c0.351,1.298,0.933,2.536,1.438,3.79
				c0.167,0.413,0.092,0.672-0.137,1.083c-0.853,1.53-2.071,2.024-3.738,1.684c-0.415-0.085-0.863-0.006-1.295,0
				C103.816,143.335,103.815,143.318,103.815,143.304z"/>
			<path fill-rule="evenodd" clip-rule="evenodd" fill="#14264D" d="M101.688,130.216c-2.483-0.201-4.97-0.372-7.447-0.626
				c-0.528-0.055-1.038-0.391-1.535-0.641c-2.114-1.061-3.458-2.694-3.999-5.052c-0.299-1.309-0.914-2.544-1.333-3.829
				c-0.077-0.235,0.104-0.555,0.17-0.835c0.005-0.021,0.04-0.036,0.057-0.057c0.902-1.123,1.964-1.52,3.462-1.223
				c2.092,0.416,4.245,0.519,6.356,0.849c0.601,0.096,1.158,0.506,1.721,0.799c1.792,0.935,2.91,2.367,3.44,4.348
				c0.349,1.298,0.977,2.521,1.419,3.798c0.09,0.26-0.006,0.667-0.164,0.911c-0.259,0.404-0.607,0.77-0.976,1.081
				c-0.315,0.268-0.712,0.436-1.074,0.646C101.754,130.33,101.721,130.272,101.688,130.216z"/>
			<path fill-rule="evenodd" clip-rule="evenodd" fill="#14264D" d="M123.23,157.081c-0.244,0.002-0.488,0.006-0.732,0.009
				c-3.586,0.037-3.59,0.043-6.41-2.144c-0.237-0.183-0.422-0.484-0.534-0.768c-0.848-2.137-1.652-4.29-2.513-6.422
				c-0.202-0.499-0.084-0.813,0.172-1.251c0.712-1.217,1.603-1.725,3.089-1.533c1.791,0.23,3.623,0.121,5.432,0.23
				c0.505,0.031,1.022,0.265,1.488,0.499c1.932,0.97,3.136,2.511,3.744,4.606c0.375,1.291,0.977,2.52,1.521,3.757
				c0.196,0.447,0.114,0.759-0.083,1.191c-0.649,1.421-1.622,2.097-3.228,1.821C124.546,156.971,123.88,157.074,123.23,157.081z"/>
			<path fill-rule="evenodd" clip-rule="evenodd" fill="#14264D" d="M97.351,117.664c-2.862-0.367-5.576-0.684-8.276-1.09
				c-0.491-0.072-0.915-0.534-1.392-0.775c-1.945-0.992-3.084-2.561-3.616-4.676c-0.314-1.252-0.847-2.449-1.311-3.662
				c-0.146-0.381-0.142-0.665,0.231-0.887c0.046-0.027,0.09-0.061,0.125-0.102c0.909-1.051,1.988-1.237,3.332-0.902
				c1.543,0.382,3.132,0.635,4.716,0.783c1.628,0.15,2.966,0.775,4.25,1.76c0.954,0.729,1.695,1.474,2.067,2.659
				c0.485,1.545,1.135,3.038,1.746,4.54c0.167,0.408,0.15,0.687-0.206,0.978c-0.396,0.327-0.728,0.729-1.116,1.063
				C97.717,117.516,97.468,117.602,97.351,117.664z"/>
			<path fill-rule="evenodd" clip-rule="evenodd" fill="#14264D" d="M119.45,143.9c-1.297-0.049-2.596-0.172-3.889-0.128
				c-1.125,0.038-1.963-0.439-2.897-0.977c-1.625-0.935-2.589-2.228-3.122-3.996c-0.442-1.471-1.113-2.873-1.627-4.324
				c-0.091-0.255,0.011-0.65,0.153-0.908c0.725-1.313,1.785-1.681,3.296-1.407c1.723,0.312,3.503,0.284,5.25,0.485
				c0.553,0.063,1.099,0.343,1.614,0.595c1.908,0.937,2.994,2.516,3.608,4.52c0.372,1.211,0.973,2.347,1.396,3.545
				c0.11,0.309,0.02,0.758-0.123,1.078c-0.614,1.385-1.671,1.937-3.173,1.545c-0.154-0.039-0.323-0.022-0.485-0.032
				C119.45,143.897,119.45,143.899,119.45,143.9z"/>
			<path fill-rule="evenodd" clip-rule="evenodd" fill="#14264D" d="M116.669,131.49c-2.543-0.213-4.895-0.377-7.236-0.628
				c-0.471-0.05-0.908-0.422-1.359-0.647c-1.977-0.996-3.126-2.605-3.707-4.729c-0.334-1.222-0.924-2.369-1.335-3.573
				c-0.087-0.254,0.021-0.653,0.176-0.898c0.729-1.14,1.711-1.487,3.086-1.163c1.361,0.319,2.784,0.411,4.187,0.524
				c1.354,0.109,2.518,0.513,3.639,1.349c1.105,0.823,1.936,1.707,2.383,3.032c0.492,1.458,1.172,2.853,1.709,4.298
				c0.103,0.277,0.004,0.707-0.149,0.985c-0.233,0.42-0.576,0.786-0.911,1.139C116.989,131.354,116.739,131.445,116.669,131.49z"/>
			<path fill-rule="evenodd" clip-rule="evenodd" fill="#14264D" d="M131.994,145.548c1.057,0.034,2.114,0.048,3.167,0.118
				c0.304,0.018,0.621,0.144,0.893,0.293c1.875,1.018,3.203,2.465,3.825,4.573c0.342,1.16,0.901,2.263,1.429,3.36
				c0.262,0.542,0.195,0.947-0.037,1.497c-0.512,1.21-1.272,1.667-2.611,1.561c-1.56-0.127-3.141,0.027-4.712-0.001
				c-0.429-0.008-0.915-0.141-1.272-0.373c-2.731-1.779-2.719-1.793-3.939-4.832c-0.484-1.207-0.971-2.412-1.495-3.601
				c-0.208-0.473-0.12-0.812,0.106-1.27c0.595-1.206,1.438-1.681,2.78-1.402c0.597,0.124,1.242,0.009,1.865,0.003
				C131.994,145.498,131.994,145.523,131.994,145.548z"/>
			<path fill-rule="evenodd" clip-rule="evenodd" fill="#14264D" d="M111.888,119.516c-2.613-0.337-5.096-0.574-7.539-1.024
				c-0.757-0.142-1.387-0.895-2.107-1.31c-1.107-0.638-1.791-1.535-2.181-2.767c-0.464-1.468-1.078-2.888-1.668-4.312
				c-0.212-0.516-0.141-0.817,0.247-1.262c0.792-0.903,1.628-1.084,2.784-0.817c1.709,0.392,3.461,0.607,5.201,0.858
				c0.822,0.117,1.5,0.46,2.211,0.889c1.637,0.988,2.666,2.348,3.231,4.154c0.362,1.158,0.924,2.251,1.341,3.393
				c0.086,0.235,0.001,0.61-0.142,0.832c-0.247,0.381-0.591,0.702-0.916,1.027C112.191,119.337,111.983,119.447,111.888,119.516z"/>
			<path fill-rule="evenodd" clip-rule="evenodd" fill="#14264D" d="M131.512,144.387c-1.056-0.045-2.112-0.076-3.166-0.147
				c-0.253-0.015-0.519-0.125-0.742-0.254c-0.372-0.219-0.692-0.527-1.071-0.728c-1.426-0.753-2.216-1.946-2.714-3.459
				c-0.473-1.435-1.128-2.811-1.734-4.198c-0.185-0.424-0.083-0.708,0.129-1.102c0.61-1.136,1.459-1.439,2.717-1.249
				c1.657,0.25,3.349,0.256,5.014,0.461c0.523,0.066,1.021,0.414,1.508,0.672c1.607,0.852,2.604,2.176,3.16,3.912
				c0.36,1.127,0.891,2.206,1.401,3.28c0.292,0.615,0.235,1.057-0.088,1.699c-0.545,1.091-1.282,1.375-2.386,1.215
				c-0.667-0.098-1.35-0.09-2.026-0.127C131.513,144.369,131.512,144.379,131.512,144.387z"/>
			<path fill-rule="evenodd" clip-rule="evenodd" fill="#14264D" d="M129.244,132.564c-2.034-0.172-3.924-0.314-5.81-0.503
				c-0.354-0.036-0.705-0.224-1.032-0.39c-2.092-1.064-3.353-2.774-4.007-5.014c-0.302-1.033-0.777-2.02-1.217-3.008
				c-0.19-0.426-0.122-0.691,0.147-1.083c0.632-0.913,1.326-1.278,2.501-1.047c1.774,0.348,3.599,0.433,5.39,0.711
				c0.47,0.073,0.895,0.45,1.338,0.689c1.602,0.869,2.57,2.212,3.133,3.936c0.376,1.153,0.919,2.257,1.434,3.358
				c0.203,0.435,0.173,0.76-0.136,1.101c-0.145,0.159-0.277,0.338-0.377,0.528C130.282,132.469,129.827,132.794,129.244,132.564z"/>
			<path fill-rule="evenodd" clip-rule="evenodd" fill="#14264D" d="M143.97,145.973c0.271,0.011,0.546,0.061,0.811,0.027
				c1.959-0.254,3.603,0.391,4.992,1.745c0.299,0.293,0.622,0.605,0.795,0.975c0.838,1.785,1.634,3.591,2.435,5.392
				c0.448,1.01-0.591,2.659-1.668,2.671c-1.596,0.018-3.193,0.074-4.787,0.032c-0.5-0.013-1.026-0.229-1.484-0.463
				c-1.796-0.909-2.916-2.36-3.524-4.292c-0.379-1.205-0.942-2.359-1.503-3.497c-0.28-0.569-0.147-0.962,0.098-1.487
				c0.446-0.963,1.061-1.393,2.138-1.188c0.551,0.105,1.132,0.055,1.7,0.074L143.97,145.973z"/>
			<path fill-rule="evenodd" clip-rule="evenodd" fill="#14264D" d="M113.741,110.062c2.24,0.364,4.294,0.593,6.294,1.055
				c1.889,0.438,3.422,1.527,4.277,3.347c0.68,1.442,1.264,2.932,1.923,4.385c0.215,0.477,0.148,0.799-0.149,1.241
				c-0.598,0.888-1.27,1.188-2.363,0.969c-1.616-0.321-3.285-0.37-4.902-0.687c-0.727-0.142-1.387-0.638-2.067-0.992
				c-1.467-0.77-2.33-1.998-2.831-3.564c-0.353-1.104-0.829-2.176-1.327-3.226c-0.344-0.725-0.389-1.291,0.336-1.794
				C113.265,110.566,113.537,110.25,113.741,110.062z"/>
			<path fill-rule="evenodd" clip-rule="evenodd" fill="#14264D" d="M143.73,144.861c-0.921-0.033-1.843-0.051-2.76-0.114
				c-0.279-0.02-0.586-0.111-0.817-0.265c-0.81-0.538-1.604-1.106-2.381-1.694c-0.202-0.152-0.366-0.396-0.471-0.631
				c-0.832-1.88-1.649-3.766-2.463-5.652c-0.375-0.87,0.671-2.347,1.623-2.276c1.863,0.138,3.726,0.288,5.587,0.457
				c0.251,0.023,0.508,0.152,0.731,0.286c1.671,0.994,2.944,2.294,3.559,4.22c0.368,1.152,0.981,2.227,1.47,3.343
				c0.4,0.912-0.667,2.476-1.641,2.426C145.354,144.92,144.542,144.893,143.73,144.861z"/>
			<path fill-rule="evenodd" clip-rule="evenodd" fill="#14264D" d="M141.472,133.61c-1.917-0.164-3.833-0.319-5.748-0.505
				c-0.249-0.023-0.492-0.187-0.721-0.315c-1.862-1.046-3.153-2.534-3.786-4.622c-0.329-1.08-0.885-2.092-1.325-3.14
				c-0.305-0.727,0.758-2.142,1.529-2.048c1.881,0.23,3.762,0.465,5.643,0.7c0.16,0.02,0.356,0.014,0.469,0.102
				c1.243,0.995,2.787,1.636,3.387,3.348c0.517,1.477,1.268,2.87,1.905,4.306C143.104,132.065,142.119,133.631,141.472,133.61z"/>
			<path fill-rule="evenodd" clip-rule="evenodd" fill="#14264D" d="M155.246,146.391c0.163-0.003,0.327,0.015,0.486-0.01
				c1.953-0.285,3.521,0.486,4.894,1.783c0.21,0.197,0.419,0.427,0.542,0.684c0.837,1.757,1.657,3.523,2.471,5.291
				c0.453,0.983-0.496,2.517-1.551,2.527c-1.408,0.017-2.816,0.066-4.222,0.027c-0.451-0.011-0.933-0.186-1.337-0.403
				c-1.627-0.879-2.738-2.178-3.338-3.968c-0.418-1.251-1.068-2.422-1.606-3.633c-0.45-1.015,0.468-2.437,1.552-2.405
				c0.704,0.02,1.406,0.056,2.109,0.086C155.246,146.377,155.246,146.382,155.246,146.391z"/>
			<path fill-rule="evenodd" clip-rule="evenodd" fill="#14264D" d="M126.251,112.104c2.284,0.375,4.418,0.482,6.372,1.131
				c1.294,0.43,2.596,1.344,3.252,2.756c0.707,1.522,1.346,3.076,2.085,4.581c0.413,0.842-0.319,1.175-0.636,1.662
				c-0.154,0.234-0.613,0.419-0.91,0.39c-1.669-0.169-3.338-0.371-4.994-0.646c-0.582-0.097-1.153-0.385-1.678-0.677
				c-1.598-0.889-2.665-2.2-3.217-3.978c-0.327-1.053-0.825-2.06-1.316-3.054c-0.256-0.519-0.231-0.886,0.191-1.273
				C125.736,112.688,126.031,112.336,126.251,112.104z"/>
			<path fill-rule="evenodd" clip-rule="evenodd" fill="#14264D" d="M154.942,145.283c-0.108,0-0.218-0.011-0.324,0.006
				c-2.111,0.313-3.774-0.588-5.252-1.96c-0.21-0.194-0.393-0.447-0.512-0.707c-0.804-1.746-1.59-3.497-2.375-5.251
				c-0.435-0.971,0.516-2.313,1.563-2.219c1.402,0.125,2.806,0.24,4.208,0.365c1.791,0.161,3.049,1.246,3.896,2.66
				c0.94,1.569,1.604,3.307,2.37,4.979c0.367,0.805-0.598,2.264-1.464,2.237c-0.704-0.023-1.406-0.063-2.11-0.097
				C154.942,145.293,154.942,145.289,154.942,145.283z"/>
			<path fill-rule="evenodd" clip-rule="evenodd" fill="#14264D" d="M142.845,124.404c1.747,0.215,3.619,0.2,5.315,0.738
				c1.139,0.362,2.292,1.329,2.972,2.34c1.013,1.504,1.622,3.283,2.387,4.953c0.366,0.801-0.617,2.166-1.485,2.09
				c-1.481-0.128-2.965-0.229-4.441-0.405c-0.453-0.056-0.906-0.269-1.317-0.486c-1.734-0.917-2.772-2.387-3.408-4.22
				c-0.37-1.068-0.925-2.07-1.377-3.109C141.22,125.682,142.125,124.38,142.845,124.404z"/>
			<path fill-rule="evenodd" clip-rule="evenodd" fill="#14264D" d="M147.396,124.048c-1.678-0.214-3.41-0.354-5.104-0.693
				c-0.635-0.126-1.167-0.73-1.764-1.086c-0.967-0.579-1.579-1.401-1.986-2.457c-0.506-1.31-1.098-2.592-1.741-3.838
				c-0.325-0.635,0.071-0.941,0.343-1.352c0.262-0.396,0.516-0.685,1.1-0.575c1.673,0.314,3.374,0.496,5.035,0.861
				c0.589,0.131,1.089,0.651,1.64,0.977c1.045,0.617,1.685,1.535,2.138,2.648c0.5,1.226,1.109,2.406,1.652,3.615
				C148.996,122.787,148.118,124.078,147.396,124.048z"/>
			<path fill="none" d="M160.182,143.776c-4.345-9.531-8.69-19.063-13.03-28.599c-0.208-0.459-0.428-0.786-1.012-0.883
				c-7.824-1.298-15.644-2.626-23.463-3.945c-14.146-2.39-28.292-4.778-42.439-7.165c-1.318-0.223-2.64-0.431-4.042-0.658
				c0.098,0.303,0.151,0.482,0.214,0.659c6.714,18.867,13.433,37.731,20.126,56.605c0.237,0.667,0.57,0.818,1.224,0.811
				c22.92-0.257,45.84-0.497,68.76-0.741c0.29-0.003,0.579-0.029,0.951-0.05c-0.15-0.352-0.258-0.622-0.38-0.89
				C164.789,153.872,162.483,148.825,160.182,143.776z"/>
			<path fill="#14264D" d="M169.632,159.783c-7.013-15.338-14.015-30.68-20.992-46.033c-0.351-0.771-0.777-1.125-1.633-1.267
				c-11.004-1.819-22.001-3.682-33-5.54c-11.933-2.016-23.875-3.978-35.788-6.108c-2.113-0.379-3.759-0.146-5.288,1.328
				c-0.365,0.352-0.496,0.569-0.319,1.066c7.045,19.869,14.08,39.743,21.091,59.624c0.236,0.672,0.566,0.818,1.223,0.81
				c9.7-0.124,59.771-0.69,71.017-0.722c1.654-0.004,2.745-0.429,3.545-1.85C169.754,160.623,169.869,160.301,169.632,159.783z
				 M166.52,159.86c-22.92,0.244-45.84,0.484-68.76,0.741c-0.653,0.008-0.987-0.144-1.224-0.811
				c-6.693-18.874-13.413-37.738-20.126-56.605c-0.063-0.177-0.116-0.356-0.214-0.659c1.402,0.228,2.723,0.436,4.042,0.658
				c14.147,2.387,28.293,4.775,42.439,7.165c7.82,1.319,15.639,2.647,23.463,3.945c0.584,0.097,0.804,0.424,1.012,0.883
				c4.34,9.535,8.685,19.067,13.03,28.599c2.302,5.049,4.607,10.096,6.909,15.145c0.122,0.268,0.23,0.538,0.38,0.89
				C167.098,159.831,166.81,159.857,166.52,159.86z"/>
		</g>
	</g>
	<g>
		<g>
			<path fill-rule="evenodd" clip-rule="evenodd" fill="#FFFFFF" d="M152.258,184.846c-0.484,0.021-0.859,0.053-1.235,0.053
				c-29.742,0-59.484-0.004-89.227,0.014c-0.848,0.002-1.278-0.199-1.576-1.066c-8.425-24.581-16.883-49.152-25.335-73.724
				c-0.079-0.23-0.146-0.464-0.27-0.859c1.817,0.316,3.528,0.604,5.236,0.91c18.322,3.292,36.645,6.586,54.966,9.88
				c10.129,1.821,20.256,3.653,30.39,5.444c0.757,0.133,1.037,0.56,1.301,1.16c5.5,12.43,11.006,24.856,16.513,37.284
				c2.917,6.583,5.839,13.163,8.756,19.746C151.931,184.033,152.068,184.388,152.258,184.846z M69.363,164.165
				c0-0.03,0-0.059,0-0.089c-0.914,0-1.862,0.163-2.732-0.031c-2.281-0.509-3.938,0.206-5.093,2.198
				c-0.017,0.031-0.063,0.051-0.068,0.079c-0.074,0.404-0.302,0.864-0.187,1.208c1.051,3.128,2.159,6.235,3.265,9.345
				c0.089,0.251,0.23,0.539,0.437,0.684c1.443,1,2.894,1.992,4.381,2.925c0.324,0.203,0.806,0.203,1.215,0.206
				c2.531,0.018,5.077-0.168,7.587,0.057c2.274,0.203,3.784-0.486,4.846-2.496c0.315-0.595,0.418-1.009,0.185-1.62
				c-1.051-2.755-2.055-5.528-3.097-8.288c-0.131-0.346-0.316-0.746-0.599-0.952c-2.366-1.729-4.645-3.675-7.936-3.119
				C70.859,164.392,70.099,164.208,69.363,164.165z M69.893,162.552c0,0.02,0,0.04,0,0.061c0.561,0,1.144-0.099,1.68,0.017
				c2.159,0.467,3.746-0.156,4.874-2.131c0.302-0.53,0.402-0.865,0.192-1.404c-0.639-1.633-1.376-3.247-1.814-4.938
				c-0.719-2.782-2.235-4.848-4.8-6.118c-0.76-0.376-1.565-0.79-2.386-0.893c-2.577-0.32-5.206-0.319-7.75-0.788
				c-2.138-0.394-3.58,0.281-4.705,1.954c-0.211,0.313-0.36,0.842-0.248,1.172c0.967,2.858,1.803,5.786,3.076,8.507
				c1.069,2.285,3.459,3.253,5.679,4.229c0.21,0.093,0.487,0.034,0.733,0.047C66.246,162.36,68.069,162.456,69.893,162.552z
				 M67.312,145.541c0.042,0.074,0.084,0.15,0.125,0.223c0.472-0.27,0.99-0.482,1.403-0.824c0.482-0.399,0.938-0.868,1.281-1.39
				c0.207-0.315,0.338-0.84,0.225-1.181c-0.556-1.662-1.354-3.257-1.789-4.947c-0.663-2.576-2.091-4.45-4.404-5.687
				c-0.727-0.389-1.444-0.93-2.223-1.062c-2.735-0.459-5.527-0.62-8.236-1.188c-1.938-0.406-3.322,0.096-4.508,1.54
				c-0.023,0.025-0.068,0.043-0.075,0.071c-0.089,0.362-0.329,0.774-0.232,1.082c0.525,1.673,1.306,3.284,1.677,4.985
				c0.669,3.066,2.389,5.205,5.119,6.61c0.642,0.332,1.299,0.774,1.983,0.852C60.869,144.991,64.093,145.247,67.312,145.541z
				 M94.893,180.696c0.843,0,1.708-0.126,2.525,0.022c2.082,0.379,3.353-0.484,4.214-2.319c0.262-0.558,0.373-0.96,0.124-1.544
				c-0.69-1.613-1.454-3.216-1.922-4.896c-0.76-2.728-2.302-4.741-4.795-6.026c-0.6-0.311-1.267-0.623-1.923-0.67
				c-2.347-0.167-4.725-0.05-7.045-0.372c-1.925-0.27-3.088,0.377-4.029,1.945c-0.338,0.565-0.495,0.971-0.24,1.621
				c1.089,2.776,2.103,5.583,3.172,8.367c0.142,0.37,0.378,0.762,0.683,1.003c3.629,2.875,3.635,2.869,8.288,2.869
				C94.261,180.696,94.577,180.696,94.893,180.696z M61.858,129.196c0.152-0.081,0.477-0.189,0.719-0.396
				c0.507-0.431,0.944-0.946,1.463-1.362c0.466-0.375,0.491-0.735,0.281-1.269c-0.772-1.957-1.596-3.902-2.203-5.913
				c-0.466-1.542-1.417-2.521-2.646-3.481c-1.654-1.293-3.381-2.123-5.492-2.342c-2.053-0.213-4.111-0.563-6.108-1.081
				c-1.738-0.452-3.141-0.224-4.334,1.126c-0.046,0.053-0.104,0.097-0.165,0.131c-0.487,0.281-0.497,0.65-0.312,1.147
				c0.584,1.579,1.258,3.141,1.649,4.771c0.661,2.75,2.118,4.802,4.628,6.114c0.614,0.32,1.158,0.926,1.794,1.028
				C54.631,128.231,58.148,128.681,61.858,129.196z M90.169,163.543v-0.006c0.211,0.013,0.43-0.008,0.63,0.047
				c1.943,0.529,3.321-0.173,4.138-1.961c0.189-0.415,0.313-0.993,0.174-1.398c-0.531-1.56-1.296-3.043-1.762-4.616
				c-0.77-2.61-2.156-4.675-4.619-5.914c-0.664-0.335-1.368-0.704-2.086-0.795c-2.264-0.285-4.574-0.274-6.805-0.702
				c-1.958-0.375-3.338,0.087-4.297,1.78c-0.188,0.333-0.326,0.844-0.212,1.178c0.648,1.89,1.499,3.717,2.053,5.633
				c0.667,2.302,1.899,3.992,3.995,5.228c1.205,0.71,2.285,1.34,3.746,1.307C86.804,163.283,88.487,163.46,90.169,163.543z
				 M86.732,147.4c0.092-0.056,0.416-0.174,0.633-0.396c0.439-0.453,0.89-0.924,1.197-1.465c0.203-0.359,0.337-0.916,0.207-1.276
				c-0.677-1.884-1.541-3.702-2.159-5.601c-0.561-1.725-1.626-2.883-3.049-3.968c-1.444-1.099-2.949-1.639-4.703-1.8
				c-1.818-0.166-3.664-0.304-5.426-0.738c-1.778-0.438-3.059-0.002-4.019,1.468c-0.206,0.314-0.351,0.832-0.242,1.165
				c0.517,1.566,1.267,3.064,1.683,4.653c0.724,2.763,2.192,4.866,4.745,6.185c0.582,0.3,1.143,0.788,1.753,0.86
				C80.388,146.846,83.436,147.092,86.732,147.4z M106.423,165.853c0-0.033,0-0.065,0-0.096c-0.808,0-1.647,0.14-2.418-0.029
				c-1.739-0.381-2.839,0.226-3.627,1.78c-0.299,0.592-0.418,1.03-0.155,1.646c0.663,1.551,1.278,3.119,1.889,4.691
				c1.542,3.961,1.527,3.979,5.046,6.324c0.46,0.307,1.088,0.486,1.646,0.502c2.037,0.059,4.091-0.119,6.113,0.065
				c1.735,0.157,2.729-0.425,3.409-1.988c0.309-0.71,0.402-1.233,0.069-1.941c-0.67-1.432-1.38-2.869-1.808-4.379
				c-0.778-2.745-2.481-4.642-4.9-5.988c-0.351-0.195-0.76-0.364-1.155-0.393C109.164,165.944,107.793,165.91,106.423,165.853z
				 M80.694,131.798c0.125-0.087,0.395-0.228,0.603-0.433c0.425-0.417,0.876-0.828,1.202-1.319c0.189-0.286,0.305-0.772,0.196-1.077
				c-0.525-1.487-1.239-2.913-1.693-4.42c-0.709-2.354-2.026-4.131-4.135-5.435c-0.917-0.566-1.792-1.021-2.857-1.185
				c-2.253-0.35-4.524-0.653-6.736-1.186c-1.497-0.361-2.583-0.139-3.624,1.024c-0.508,0.569-0.606,0.96-0.337,1.632
				c0.745,1.855,1.523,3.707,2.105,5.616c0.488,1.603,1.364,2.778,2.791,3.619c0.93,0.55,1.738,1.536,2.717,1.729
				C74.09,130.983,77.308,131.324,80.694,131.798z M105.813,164.34c0.001-0.012,0.001-0.023,0.002-0.033
				c0.876,0.06,1.762,0.058,2.626,0.192c1.432,0.225,2.391-0.137,3.114-1.542c0.428-0.829,0.508-1.402,0.137-2.205
				c-0.646-1.4-1.319-2.807-1.772-4.274c-0.697-2.261-1.973-3.991-4.045-5.119c-0.63-0.342-1.27-0.8-1.948-0.893
				c-2.158-0.291-4.353-0.319-6.499-0.668c-1.63-0.266-2.735,0.118-3.543,1.584c-0.28,0.508-0.416,0.874-0.182,1.426
				c0.766,1.81,1.597,3.605,2.191,5.473c0.625,1.969,1.634,3.529,3.473,4.525c0.49,0.265,0.901,0.67,1.381,0.958
				c0.288,0.171,0.631,0.317,0.959,0.342C103.074,164.211,104.443,164.266,105.813,164.34z M103.034,148.966
				c0.753,0.308,1.348-0.106,1.779-0.915c0.131-0.244,0.306-0.475,0.496-0.681c0.407-0.437,0.45-0.858,0.192-1.425
				c-0.653-1.437-1.342-2.876-1.814-4.376c-0.706-2.246-1.945-4.001-4.01-5.15c-0.571-0.317-1.117-0.812-1.726-0.913
				c-2.32-0.387-4.687-0.521-6.984-0.998c-1.521-0.316-2.426,0.147-3.26,1.326c-0.354,0.502-0.446,0.848-0.207,1.401
				c0.557,1.29,1.161,2.575,1.538,3.92c0.818,2.914,2.431,5.15,5.131,6.561c0.422,0.219,0.875,0.469,1.334,0.52
				C97.946,148.506,100.396,148.717,103.034,148.966z M121.956,166.566c0-0.004,0.001-0.009,0.001-0.014
				c-0.737-0.033-1.491,0.024-2.205-0.119c-1.396-0.279-2.199,0.269-2.791,1.512c-0.324,0.679-0.501,1.188-0.146,1.928
				c0.711,1.484,1.426,2.99,1.902,4.559c0.762,2.514,2.195,4.414,4.513,5.619c0.592,0.308,1.271,0.596,1.92,0.62
				c2.068,0.076,4.141,0.025,6.211,0.025c1.399-0.002,2.769-2.129,2.202-3.442c-1.015-2.349-2.022-4.703-3.085-7.032
				c-0.22-0.479-0.633-0.89-1.018-1.272c-1.783-1.779-3.907-2.637-6.453-2.335C122.663,166.654,122.307,166.585,121.956,166.566z
				 M83.228,119.557c-0.267,0.242-0.624,0.648-1.058,0.942c-0.948,0.642-0.897,1.377-0.461,2.321
				c0.632,1.369,1.234,2.767,1.678,4.203c0.629,2.039,1.73,3.646,3.624,4.663c0.877,0.471,1.728,1.124,2.668,1.318
				c2.093,0.433,4.26,0.518,6.352,0.958c1.414,0.299,2.291-0.082,3.078-1.227c0.392-0.568,0.483-0.987,0.21-1.606
				c-0.834-1.896-1.572-3.836-2.434-5.718c-1.085-2.371-3.059-3.805-5.504-4.4C88.792,120.383,86.129,120.061,83.228,119.557z
				 M121.66,165.122c1.052,0.053,2.105,0.1,3.158,0.162c1.265,0.075,2.67-1.936,2.163-3.125c-0.619-1.455-1.399-2.856-1.861-4.355
				c-0.771-2.509-2.406-4.212-4.56-5.525c-0.288-0.176-0.619-0.349-0.945-0.381c-2.412-0.246-4.827-0.467-7.242-0.671
				c-1.233-0.104-2.611,1.798-2.137,2.931c1.03,2.46,2.064,4.918,3.118,7.368c0.133,0.307,0.343,0.625,0.603,0.826
				c1,0.772,2.022,1.52,3.067,2.23c0.297,0.201,0.694,0.326,1.056,0.356C119.271,165.031,120.465,165.066,121.66,165.122z
				 M118.884,150.495c0.84,0.034,2.139-1.985,1.786-2.806c-0.806-1.87-1.762-3.689-2.412-5.612c-0.755-2.229-2.75-3.082-4.35-4.388
				c-0.144-0.118-0.4-0.112-0.606-0.141c-2.437-0.331-4.874-0.661-7.313-0.986c-1-0.131-2.397,1.69-2.012,2.637
				c0.557,1.366,1.265,2.686,1.676,4.094c0.793,2.715,2.448,4.664,4.85,6.048c0.294,0.17,0.609,0.384,0.931,0.418
				C113.915,150.027,116.4,150.254,118.884,150.495z M136.58,167.265c0-0.011,0-0.018,0-0.026c-0.911-0.048-1.822-0.104-2.734-0.141
				c-1.405-0.055-2.616,1.778-2.047,3.099c0.681,1.579,1.508,3.108,2.034,4.735c0.754,2.335,2.179,4.033,4.278,5.196
				c0.521,0.288,1.144,0.521,1.729,0.543c1.824,0.068,3.651,0.023,5.478,0.021c1.37-0.001,2.622-1.976,2.048-3.258
				c-1.032-2.306-2.072-4.607-3.134-6.899c-0.156-0.334-0.424-0.634-0.694-0.895c-1.762-1.702-3.786-2.725-6.324-2.381
				C137.004,167.288,136.791,167.265,136.58,167.265z M99.431,122.379c-0.288,0.298-0.676,0.751-1.116,1.145
				c-0.554,0.497-0.59,0.975-0.265,1.651c0.624,1.295,1.255,2.609,1.666,3.979c0.692,2.314,2.058,4.028,4.119,5.205
				c0.677,0.388,1.415,0.767,2.168,0.901c2.144,0.381,4.306,0.665,6.47,0.906c0.385,0.043,0.983-0.19,1.186-0.493
				c0.419-0.628,1.374-1.05,0.849-2.147c-0.938-1.962-1.747-3.987-2.643-5.972c-0.832-1.842-2.508-3.047-4.182-3.621
				C105.157,123.064,102.391,122.896,99.431,122.379z M136.202,165.824c0,0.007,0,0.014,0,0.014
				c0.912,0.058,1.824,0.121,2.737,0.159c1.123,0.046,2.396-1.833,1.93-2.882c-0.97-2.181-1.808-4.443-3.006-6.494
				c-1.079-1.847-2.697-3.271-5.019-3.505c-1.818-0.182-3.637-0.351-5.455-0.532c-1.357-0.136-2.61,1.592-2.059,2.858
				c0.995,2.285,1.991,4.57,3.009,6.845c0.152,0.34,0.385,0.669,0.655,0.926c1.899,1.801,4.044,2.992,6.787,2.614
				C135.919,165.808,136.062,165.824,136.202,165.824z M120.792,138.567c-0.932-0.04-2.125,1.634-1.784,2.446
				c0.573,1.355,1.279,2.664,1.745,4.054c0.8,2.388,2.127,4.309,4.364,5.522c0.531,0.287,1.116,0.571,1.703,0.648
				c1.913,0.249,3.837,0.401,5.756,0.59c1.126,0.109,2.42-1.65,1.956-2.693c-0.97-2.177-1.735-4.493-3.029-6.46
				c-0.868-1.319-2.351-2.591-3.824-3.075C125.485,138.877,123.057,138.87,120.792,138.567z M126.703,138.167
				c0.937,0.05,2.094-1.612,1.73-2.446c-0.688-1.575-1.463-3.115-2.094-4.712c-0.572-1.45-1.389-2.65-2.737-3.467
				c-0.71-0.43-1.352-1.111-2.114-1.289c-2.15-0.498-4.354-0.756-6.521-1.188c-0.756-0.149-1.088,0.224-1.435,0.731
				c-0.359,0.527-0.877,0.923-0.463,1.749c0.817,1.627,1.567,3.298,2.206,5.004c0.514,1.376,1.297,2.452,2.543,3.216
				c0.77,0.471,1.453,1.261,2.274,1.435C122.282,137.66,124.529,137.867,126.703,138.167z"/>
			<path fill-rule="evenodd" clip-rule="evenodd" fill="#14264D" d="M69.363,164.165c0.736,0.043,1.497,0.227,2.206,0.105
				c3.291-0.556,5.57,1.39,7.936,3.119c0.283,0.206,0.467,0.606,0.599,0.952c1.042,2.76,2.045,5.533,3.097,8.288
				c0.233,0.611,0.13,1.025-0.185,1.62c-1.063,2.01-2.572,2.699-4.846,2.496c-2.51-0.225-5.056-0.039-7.587-0.057
				c-0.41-0.003-0.892-0.003-1.215-0.206c-1.487-0.933-2.938-1.925-4.381-2.925c-0.207-0.145-0.348-0.433-0.437-0.684
				c-1.106-3.109-2.214-6.217-3.265-9.345c-0.115-0.344,0.113-0.804,0.187-1.208c0.005-0.028,0.051-0.048,0.068-0.079
				c1.154-1.992,2.812-2.707,5.093-2.198c0.87,0.194,1.818,0.031,2.732,0.031C69.362,164.106,69.363,164.135,69.363,164.165z"/>
			<path fill-rule="evenodd" clip-rule="evenodd" fill="#14264D" d="M69.893,162.552c-1.823-0.096-3.647-0.191-5.469-0.286
				c-0.246-0.013-0.522,0.046-0.733-0.047c-2.22-0.976-4.61-1.943-5.679-4.229c-1.273-2.721-2.108-5.648-3.076-8.507
				c-0.112-0.33,0.037-0.858,0.248-1.172c1.125-1.673,2.567-2.348,4.705-1.954c2.544,0.469,5.173,0.468,7.75,0.788
				c0.821,0.103,1.626,0.517,2.386,0.893c2.564,1.271,4.081,3.336,4.8,6.118c0.438,1.69,1.175,3.305,1.814,4.938
				c0.21,0.539,0.11,0.874-0.192,1.404c-1.128,1.975-2.715,2.598-4.874,2.131c-0.537-0.115-1.12-0.017-1.68-0.017
				C69.892,162.592,69.892,162.571,69.893,162.552z"/>
			<path fill-rule="evenodd" clip-rule="evenodd" fill="#14264D" d="M67.312,145.541c-3.219-0.294-6.443-0.55-9.654-0.915
				c-0.685-0.077-1.341-0.52-1.983-0.852c-2.729-1.405-4.45-3.544-5.119-6.61c-0.371-1.701-1.151-3.313-1.677-4.985
				c-0.096-0.308,0.143-0.72,0.232-1.082c0.007-0.028,0.052-0.046,0.075-0.071c1.186-1.444,2.57-1.946,4.508-1.54
				c2.709,0.568,5.501,0.729,8.236,1.188c0.779,0.132,1.496,0.673,2.223,1.062c2.313,1.236,3.741,3.11,4.404,5.687
				c0.435,1.69,1.232,3.285,1.789,4.947c0.113,0.341-0.018,0.865-0.225,1.181c-0.342,0.521-0.798,0.99-1.281,1.39
				c-0.413,0.342-0.931,0.555-1.403,0.824C67.396,145.691,67.354,145.615,67.312,145.541z"/>
			<path fill-rule="evenodd" clip-rule="evenodd" fill="#14264D" d="M94.893,180.696c-0.316,0-0.632,0-0.949,0
				c-4.653,0-4.659,0.006-8.288-2.869c-0.305-0.241-0.541-0.633-0.683-1.003c-1.069-2.784-2.083-5.591-3.172-8.367
				c-0.255-0.65-0.098-1.056,0.24-1.621c0.941-1.568,2.104-2.215,4.029-1.945c2.32,0.322,4.699,0.205,7.045,0.372
				c0.656,0.047,1.323,0.359,1.923,0.67c2.493,1.285,4.035,3.299,4.795,6.026c0.469,1.681,1.232,3.283,1.922,4.896
				c0.249,0.584,0.138,0.986-0.124,1.544c-0.862,1.835-2.133,2.698-4.214,2.319C96.602,180.57,95.736,180.696,94.893,180.696z"/>
			<path fill-rule="evenodd" clip-rule="evenodd" fill="#14264D" d="M61.858,129.196c-3.709-0.516-7.227-0.965-10.725-1.526
				c-0.636-0.103-1.18-0.708-1.794-1.028c-2.51-1.313-3.967-3.364-4.628-6.114c-0.391-1.63-1.065-3.191-1.649-4.771
				c-0.185-0.497-0.175-0.866,0.312-1.147c0.06-0.034,0.118-0.078,0.165-0.131c1.193-1.35,2.596-1.578,4.334-1.126
				c1.998,0.519,4.055,0.868,6.108,1.081c2.111,0.219,3.838,1.049,5.492,2.342c1.228,0.96,2.179,1.939,2.646,3.481
				c0.607,2.011,1.43,3.956,2.203,5.913c0.21,0.533,0.185,0.894-0.281,1.269c-0.519,0.416-0.956,0.932-1.463,1.362
				C62.334,129.007,62.01,129.115,61.858,129.196z"/>
			<path fill-rule="evenodd" clip-rule="evenodd" fill="#14264D" d="M90.169,163.543c-1.682-0.083-3.365-0.26-5.044-0.221
				c-1.46,0.033-2.541-0.597-3.746-1.307c-2.096-1.235-3.328-2.926-3.995-5.228c-0.554-1.916-1.405-3.743-2.053-5.633
				c-0.114-0.334,0.023-0.845,0.212-1.178c0.959-1.693,2.339-2.155,4.297-1.78c2.23,0.428,4.541,0.417,6.805,0.702
				c0.718,0.091,1.422,0.46,2.086,0.795c2.463,1.239,3.85,3.304,4.619,5.914c0.465,1.573,1.23,3.057,1.762,4.616
				c0.139,0.405,0.015,0.983-0.174,1.398c-0.817,1.788-2.195,2.49-4.138,1.961c-0.2-0.055-0.419-0.034-0.63-0.048V163.543z"/>
			<path fill-rule="evenodd" clip-rule="evenodd" fill="#14264D" d="M86.732,147.4c-3.296-0.309-6.345-0.555-9.38-0.913
				c-0.61-0.072-1.172-0.561-1.753-0.86c-2.552-1.318-4.021-3.422-4.745-6.185c-0.417-1.589-1.167-3.087-1.683-4.653
				c-0.109-0.333,0.036-0.851,0.242-1.165c0.96-1.47,2.241-1.906,4.019-1.468c1.763,0.435,3.608,0.572,5.426,0.738
				c1.754,0.161,3.259,0.701,4.703,1.8c1.423,1.085,2.488,2.243,3.049,3.968c0.618,1.898,1.482,3.717,2.159,5.601
				c0.13,0.36-0.004,0.917-0.207,1.276c-0.308,0.541-0.758,1.012-1.197,1.465C87.148,147.227,86.825,147.345,86.732,147.4z"/>
			<path fill-rule="evenodd" clip-rule="evenodd" fill="#14264D" d="M106.423,165.853c1.37,0.058,2.741,0.092,4.108,0.195
				c0.395,0.028,0.804,0.197,1.155,0.393c2.419,1.347,4.122,3.243,4.9,5.988c0.428,1.51,1.138,2.947,1.808,4.379
				c0.333,0.708,0.24,1.231-0.069,1.941c-0.68,1.563-1.673,2.146-3.409,1.988c-2.022-0.185-4.076-0.007-6.113-0.065
				c-0.558-0.016-1.186-0.195-1.646-0.502c-3.519-2.346-3.504-2.363-5.046-6.324c-0.611-1.572-1.227-3.141-1.889-4.691
				c-0.263-0.616-0.144-1.055,0.155-1.646c0.788-1.555,1.888-2.161,3.627-1.78c0.771,0.169,1.61,0.029,2.418,0.029
				C106.423,165.787,106.423,165.819,106.423,165.853z"/>
			<path fill-rule="evenodd" clip-rule="evenodd" fill="#14264D" d="M80.694,131.798c-3.386-0.474-6.604-0.814-9.768-1.434
				c-0.979-0.192-1.787-1.179-2.717-1.729c-1.427-0.841-2.302-2.017-2.791-3.619c-0.582-1.909-1.36-3.761-2.105-5.616
				c-0.27-0.672-0.171-1.063,0.337-1.632c1.041-1.163,2.127-1.386,3.624-1.024c2.212,0.532,4.483,0.836,6.736,1.186
				c1.065,0.164,1.939,0.618,2.857,1.185c2.109,1.304,3.425,3.081,4.135,5.435c0.454,1.507,1.168,2.933,1.693,4.42
				c0.108,0.305-0.007,0.791-0.196,1.077c-0.325,0.491-0.776,0.902-1.202,1.319C81.089,131.57,80.819,131.711,80.694,131.798z"/>
			<path fill-rule="evenodd" clip-rule="evenodd" fill="#14264D" d="M105.813,164.34c-1.369-0.074-2.739-0.129-4.104-0.234
				c-0.329-0.024-0.672-0.171-0.959-0.342c-0.48-0.288-0.892-0.693-1.381-0.958c-1.839-0.996-2.848-2.557-3.473-4.525
				c-0.594-1.867-1.425-3.663-2.191-5.473c-0.234-0.552-0.099-0.918,0.182-1.426c0.808-1.466,1.913-1.85,3.543-1.584
				c2.146,0.349,4.341,0.377,6.499,0.668c0.678,0.093,1.318,0.551,1.948,0.893c2.073,1.128,3.348,2.858,4.045,5.119
				c0.453,1.468,1.126,2.874,1.772,4.274c0.371,0.803,0.291,1.376-0.137,2.205c-0.723,1.405-1.682,1.767-3.114,1.542
				c-0.864-0.135-1.75-0.133-2.626-0.192C105.814,164.316,105.813,164.328,105.813,164.34z"/>
			<path fill-rule="evenodd" clip-rule="evenodd" fill="#14264D" d="M103.034,148.966c-2.637-0.249-5.087-0.46-7.532-0.73
				c-0.459-0.051-0.912-0.301-1.334-0.52c-2.701-1.41-4.313-3.646-5.131-6.561c-0.377-1.345-0.981-2.63-1.538-3.92
				c-0.24-0.554-0.147-0.899,0.207-1.401c0.833-1.179,1.739-1.643,3.26-1.326c2.297,0.477,4.665,0.611,6.984,0.998
				c0.609,0.102,1.155,0.596,1.726,0.913c2.065,1.149,3.304,2.904,4.01,5.15c0.472,1.5,1.161,2.939,1.814,4.376
				c0.258,0.566,0.215,0.988-0.192,1.425c-0.19,0.206-0.365,0.437-0.496,0.681C104.381,148.859,103.787,149.273,103.034,148.966z"/>
			<path fill-rule="evenodd" clip-rule="evenodd" fill="#14264D" d="M121.956,166.566c0.351,0.019,0.707,0.088,1.051,0.048
				c2.546-0.302,4.67,0.556,6.453,2.335c0.384,0.383,0.797,0.793,1.018,1.272c1.063,2.329,2.07,4.684,3.085,7.032
				c0.567,1.313-0.803,3.44-2.202,3.442c-2.071,0-4.144,0.051-6.211-0.025c-0.649-0.024-1.328-0.313-1.92-0.62
				c-2.317-1.205-3.75-3.105-4.513-5.619c-0.476-1.568-1.19-3.074-1.902-4.559c-0.355-0.74-0.178-1.249,0.146-1.928
				c0.592-1.243,1.395-1.791,2.791-1.512c0.714,0.144,1.468,0.086,2.205,0.119C121.957,166.558,121.956,166.563,121.956,166.566z"/>
			<path fill-rule="evenodd" clip-rule="evenodd" fill="#14264D" d="M83.228,119.557c2.901,0.504,5.564,0.826,8.152,1.455
				c2.445,0.596,4.419,2.029,5.504,4.4c0.862,1.882,1.6,3.822,2.434,5.718c0.273,0.619,0.181,1.038-0.21,1.606
				c-0.788,1.145-1.665,1.525-3.078,1.227c-2.092-0.44-4.258-0.525-6.352-0.958c-0.94-0.194-1.791-0.848-2.668-1.318
				c-1.894-1.017-2.995-2.624-3.624-4.663c-0.444-1.437-1.045-2.834-1.678-4.203c-0.437-0.944-0.487-1.68,0.461-2.321
				C82.604,120.205,82.961,119.799,83.228,119.557z"/>
			<path fill-rule="evenodd" clip-rule="evenodd" fill="#14264D" d="M121.66,165.122c-1.195-0.056-2.39-0.091-3.581-0.184
				c-0.362-0.03-0.758-0.155-1.056-0.356c-1.045-0.711-2.066-1.458-3.067-2.23c-0.26-0.201-0.47-0.52-0.603-0.826
				c-1.053-2.45-2.087-4.908-3.118-7.368c-0.475-1.133,0.903-3.035,2.137-2.931c2.416,0.204,4.83,0.425,7.242,0.671
				c0.326,0.032,0.657,0.205,0.945,0.381c2.154,1.313,3.789,3.017,4.56,5.525c0.462,1.499,1.242,2.9,1.861,4.355
				c0.507,1.189-0.898,3.2-2.163,3.125C123.766,165.222,122.712,165.175,121.66,165.122z"/>
			<path fill-rule="evenodd" clip-rule="evenodd" fill="#14264D" d="M118.884,150.495c-2.484-0.241-4.969-0.468-7.45-0.736
				c-0.322-0.034-0.637-0.248-0.931-0.418c-2.402-1.384-4.056-3.333-4.85-6.048c-0.411-1.408-1.119-2.728-1.676-4.094
				c-0.385-0.946,1.012-2.768,2.012-2.637c2.438,0.325,4.875,0.655,7.313,0.986c0.206,0.028,0.462,0.022,0.606,0.141
				c1.6,1.306,3.594,2.158,4.35,4.388c0.65,1.923,1.606,3.742,2.412,5.612C121.023,148.51,119.725,150.529,118.884,150.495z"/>
			<path fill-rule="evenodd" clip-rule="evenodd" fill="#14264D" d="M136.58,167.265c0.211,0,0.424,0.023,0.632-0.005
				c2.538-0.344,4.562,0.679,6.324,2.381c0.27,0.261,0.539,0.561,0.694,0.895c1.063,2.292,2.102,4.594,3.134,6.899
				c0.574,1.282-0.678,3.257-2.048,3.258c-1.827,0.002-3.654,0.047-5.478-0.021c-0.585-0.022-1.208-0.255-1.729-0.543
				c-2.099-1.163-3.523-2.861-4.278-5.196c-0.525-1.627-1.353-3.156-2.034-4.735c-0.569-1.32,0.642-3.153,2.047-3.099
				c0.912,0.036,1.823,0.093,2.734,0.141C136.58,167.247,136.58,167.254,136.58,167.265z"/>
			<path fill-rule="evenodd" clip-rule="evenodd" fill="#14264D" d="M99.431,122.379c2.959,0.517,5.726,0.686,8.252,1.555
				c1.674,0.574,3.351,1.779,4.182,3.621c0.896,1.984,1.705,4.01,2.643,5.972c0.524,1.098-0.43,1.52-0.849,2.147
				c-0.202,0.303-0.801,0.536-1.186,0.493c-2.164-0.241-4.326-0.525-6.47-0.906c-0.754-0.135-1.491-0.514-2.168-0.901
				c-2.062-1.177-3.427-2.891-4.119-5.205c-0.411-1.37-1.042-2.685-1.666-3.979c-0.325-0.677-0.289-1.154,0.265-1.651
				C98.755,123.13,99.143,122.677,99.431,122.379z"/>
			<path fill-rule="evenodd" clip-rule="evenodd" fill="#14264D" d="M136.202,165.824c-0.141,0-0.283-0.017-0.421,0.003
				c-2.743,0.378-4.888-0.813-6.787-2.614c-0.27-0.257-0.502-0.586-0.655-0.926c-1.018-2.274-2.014-4.56-3.009-6.845
				c-0.551-1.267,0.702-2.994,2.059-2.858c1.818,0.182,3.637,0.351,5.455,0.532c2.322,0.234,3.939,1.658,5.019,3.505
				c1.199,2.051,2.036,4.313,3.006,6.494c0.467,1.049-0.807,2.928-1.93,2.882c-0.913-0.038-1.825-0.102-2.737-0.154
				C136.202,165.843,136.202,165.831,136.202,165.824z"/>
			<path fill-rule="evenodd" clip-rule="evenodd" fill="#14264D" d="M120.792,138.567c2.264,0.303,4.692,0.31,6.887,1.032
				c1.473,0.484,2.957,1.756,3.824,3.075c1.294,1.967,2.059,4.283,3.029,6.46c0.464,1.043-0.83,2.803-1.956,2.693
				c-1.919-0.188-3.843-0.341-5.756-0.59c-0.587-0.077-1.171-0.361-1.703-0.648c-2.237-1.214-3.564-3.135-4.364-5.522
				c-0.465-1.39-1.172-2.698-1.745-4.054C118.667,140.201,119.86,138.527,120.792,138.567z"/>
			<path fill-rule="evenodd" clip-rule="evenodd" fill="#14264D" d="M126.703,138.167c-2.174-0.3-4.42-0.507-6.612-0.968
				c-0.822-0.174-1.505-0.964-2.274-1.435c-1.246-0.764-2.029-1.84-2.543-3.216c-0.639-1.706-1.389-3.377-2.206-5.004
				c-0.414-0.826,0.104-1.222,0.463-1.749c0.347-0.508,0.679-0.881,1.435-0.731c2.167,0.433,4.371,0.69,6.521,1.188
				c0.762,0.178,1.404,0.859,2.114,1.289c1.348,0.816,2.165,2.017,2.737,3.467c0.631,1.597,1.406,3.137,2.094,4.712
				C128.797,136.555,127.64,138.217,126.703,138.167z"/>
			<path fill="none" d="M143.021,163.941c-5.507-12.428-11.013-24.854-16.513-37.284c-0.265-0.601-0.544-1.027-1.301-1.16
				c-10.134-1.791-20.26-3.623-30.39-5.444c-18.321-3.294-36.644-6.588-54.966-9.88c-1.708-0.307-3.419-0.594-5.236-0.91
				c0.124,0.396,0.191,0.629,0.27,0.859c8.452,24.571,16.91,49.143,25.335,73.724c0.298,0.867,0.729,1.068,1.576,1.066
				c29.743-0.018,59.485-0.014,89.227-0.014c0.376,0,0.751-0.031,1.235-0.053c-0.19-0.458-0.327-0.813-0.48-1.158
				C148.86,177.104,145.938,170.524,143.021,163.941z"/>
			<path fill="#14264D" d="M155.063,184.841c-8.888-19.998-17.762-40.001-26.603-60.019c-0.444-1.006-0.993-1.469-2.101-1.663
				c-14.253-2.514-28.497-5.082-42.742-7.643c-15.455-2.78-30.923-5.491-46.351-8.42c-2.736-0.521-4.875-0.241-6.878,1.65
				c-0.479,0.45-0.652,0.731-0.43,1.378c8.868,25.88,17.722,51.762,26.544,77.654c0.298,0.875,0.725,1.068,1.576,1.066
				c12.588-0.025,77.564-0.07,92.155,0.042c2.146,0.018,3.568-0.521,4.626-2.351C155.209,185.932,155.362,185.514,155.063,184.841z
				 M151.023,184.898c-29.742,0-59.484-0.004-89.227,0.014c-0.848,0.002-1.278-0.199-1.576-1.066
				c-8.425-24.581-16.883-49.152-25.335-73.724c-0.079-0.23-0.146-0.464-0.27-0.859c1.817,0.316,3.528,0.604,5.236,0.91
				c18.322,3.292,36.645,6.586,54.966,9.88c10.129,1.821,20.256,3.653,30.39,5.444c0.757,0.133,1.037,0.56,1.301,1.16
				c5.5,12.43,11.006,24.856,16.513,37.284c2.917,6.583,5.839,13.163,8.756,19.746c0.153,0.346,0.291,0.7,0.48,1.158
				C151.774,184.867,151.399,184.898,151.023,184.898z"/>
		</g>
	</g>
</g>
<g>
	<text transform="matrix(1 0 0 1 207.9009 119.6934)" fill="#221613" font-family="'MicrosoftJhengHeiRegular'" font-size="14">定期系統維護</text>
</g>
<g>
	<text transform="matrix(1 0 0 1 195.8999 175.6934)" fill="#221613" font-family="'MicrosoftJhengHeiRegular'" font-size="14">定期回傳發電數據</text>
</g>
<text transform="matrix(1 0 0 1 566.5674 100.3604)"><tspan x="0" y="0" fill="#221613" font-family="'MicrosoftJhengHeiRegular'" font-size="14">除了出資，</tspan><tspan x="0" y="19" fill="#221613" font-family="'MicrosoftJhengHeiRegular'" font-size="14">還可以參與捐款，屋頂出租</tspan></text>
<g>
	<text transform="matrix(1 0 0 1 567.5674 175.6934)" fill="#221613" font-family="'MicrosoftJhengHeiRegular'" font-size="14">隨時查看出資電廠的運作進度</text>
</g>
<text transform="matrix(1 0 0 1 226.8867 264.0371)" fill="#221613" font-family="'MicrosoftJhengHeiRegular'" font-size="16">持續享受20年6-8%內部報酬率的綠電收入</text>
<text transform="matrix(1 0 0 1 473.5537 26.0254)" fill="#221613" font-family="'MicrosoftJhengHeiRegular'" font-size="16">出資者透過平台購買太陽能板</text>
<g>
	
		<circle fill="none" stroke="#211613" stroke-width="2" stroke-linecap="round" stroke-miterlimit="10" stroke-dasharray="10.3666,10.3666" cx="448.391" cy="145.013" r="66"/>
</g>
<g>
	<g>
		<path fill="#4D4D4D" d="M410.87,139.604l0.059,0.06C410.91,139.644,410.89,139.623,410.87,139.604z"/>
		<path fill="#AB1F25" d="M398.635,145.566l0.012-0.011C398.643,145.56,398.638,145.563,398.635,145.566z"/>
		<polygon fill="#4D4D4D" points="400.151,148.067 400.152,148.07 400.152,148.062 		"/>
		<path fill="#AB1F25" d="M400.15,148.293c0,0.012,0.001,0.022,0.001,0.033v-0.065C400.152,148.271,400.15,148.282,400.15,148.293z"
			/>
		<path fill="#C51C1E" d="M421.253,157.415c-0.443-0.229-0.747-0.69-0.747-1.226v-6.156h-0.001v7.382H421.253z"/>
		<path fill="#AB1F25" d="M419.533,144.861l0.033,0.034C419.555,144.884,419.543,144.872,419.533,144.861z"/>
		<path fill="#4D4D4D" d="M418.035,147.383v0.064C418.037,147.426,418.035,147.404,418.035,147.383z"/>
		<path fill="#C51C1E" d="M416.979,145.791l0.051,0.052C417.014,145.826,416.997,145.809,416.979,145.791z"/>
		<path fill="#C51C1E" d="M417.471,146.287"/>
		<path fill="#C51C1E" d="M418.035,147.658"/>
		<path fill="#DEB631" d="M426.74,124.378c-8.086,0-14.881,5.523-16.821,13.003l9.426,9.425v10.674
			c2.245,1.058,4.75,1.651,7.396,1.651c9.597,0,17.376-7.779,17.376-17.377C444.117,132.157,436.337,124.378,426.74,124.378z"/>
		<path fill="#DEB631" d="M409.233,149.811l2.165-2.275c0.479-0.501,0.458-1.297-0.044-1.774c-0.502-0.479-1.297-0.46-1.776,0.042
			l-2.982,3.135c-0.457,0.48-0.461,1.238-0.007,1.724l3.128,3.343l-2.927,3.489h0.611c0.683,0,1.236,0.554,1.236,1.235
			c0,0.396-0.19,0.744-0.478,0.969c0.089-0.062,0.173-0.132,0.245-0.22l3.952-4.71c0.408-0.485,0.388-1.202-0.045-1.664
			L409.233,149.811z"/>
		<path fill="#4D4D4D" d="M408.14,139.678l0.112-0.11C408.213,139.604,408.175,139.64,408.14,139.678z"/>
		<path fill="#4D4D4D" d="M426.604,123.047c-5.653,0-10.922,2.534-14.457,6.953c-0.454,0.57-0.363,1.398,0.207,1.853
			c0.567,0.454,1.396,0.361,1.85-0.205c3.033-3.793,7.551-5.968,12.4-5.968c8.748,0,15.866,7.118,15.866,15.868
			c0,8.748-7.118,15.867-15.866,15.867h-4.719l0-0.003c-0.761,0-1.379-0.616-1.379-1.379l-0.001-8.849
			c0-0.891-0.359-1.699-0.939-2.289l-0.033-0.034l-6.985-7.07l-0.07-0.07c-0.756-0.741-1.791-1.199-2.933-1.199
			c-1.139,0-2.169,0.455-2.925,1.191h-0.003l-7.971,7.843l-0.012,0.011c-0.589,0.592-0.953,1.406-0.953,2.305v8.538
			c0,1.936,1.545,3.508,3.469,3.559c0.031,0,0.062,0.004,0.093,0.004c0.032,0,0.063-0.004,0.094-0.004h6.066
			c0.683,0,1.234-0.555,1.234-1.237c0-0.68-0.552-1.234-1.234-1.234h-2.768h-3.107l0.001-0.003c-0.761,0-1.379-0.617-1.379-1.379
			v-3.095v-1.982v-2.711c0-0.011-0.001-0.021-0.001-0.033c0-0.011,0.001-0.021,0.001-0.032c0.009-0.481,0.206-0.916,0.52-1.233
			c0.005-0.006,0.01-0.01,0.015-0.016c0,0,7.526-7.408,7.565-7.444c0.34-0.31,0.792-0.501,1.289-0.501
			c0.517,0,0.985,0.206,1.33,0.538c0.02,0.019,6.608,6.692,6.608,6.692c0.36,0.358,0.562,0.851,0.557,1.361l0,0l0.001,8.827
			c0,1.936,1.545,3.508,3.469,3.558c0.031,0,0.062,0.005,0.094,0.005h5.004c10.201,0,18.502-8.297,18.502-18.5
			C445.105,131.346,436.804,123.047,426.604,123.047z"/>
	</g>
	<g>
		<path fill="#717071" d="M459.367,131.326c-0.12,0.272-0.271,0.543-0.425,0.8h6.457l-0.051,0.679
			c-0.17,3.263-0.393,4.605-0.814,5.081c-0.308,0.391-0.631,0.51-1.037,0.595c-0.375,0.051-0.987,0.068-1.632,0.051
			c-0.018-0.526-0.204-1.224-0.442-1.665c0.475,0.051,0.866,0.068,1.087,0.068c0.222,0,0.341-0.034,0.476-0.204
			c0.205-0.238,0.359-1.055,0.494-3.041h-0.408c-0.782,1.952-1.987,3.67-3.348,4.791c-0.272-0.308-0.9-0.85-1.24-1.121
			c1.189-0.867,2.191-2.193,2.838-3.67h-0.85c-0.984,1.835-2.549,3.432-4.146,4.452c-0.239-0.309-0.784-0.969-1.105-1.259
			c1.358-0.748,2.6-1.885,3.432-3.193h-0.814c-0.58,0.68-1.225,1.257-1.905,1.715c-0.221-0.271-0.68-0.746-1.035-1.07
			c-0.256,0.152-0.546,0.237-0.902,0.307c-0.289,0.033-0.68,0.051-1.088,0.033c-0.017-0.477-0.17-1.24-0.441-1.716
			c0.305,0.017,0.543,0.017,0.748,0.017c0.187-0.017,0.339-0.051,0.476-0.152c0.186-0.137,0.254-0.477,0.254-0.953
			c0-0.781-0.221-1.834-1.172-2.973c0.341-1.07,0.698-2.549,0.968-3.704h-1.324v13.339h-1.751v-15.141l4.125,0.002l1.176,0.678
			c-0.441,1.444-1.003,3.297-1.478,4.623c1.019,1.29,1.241,2.43,1.241,3.415c0,0.646-0.086,1.155-0.256,1.546
			c0.815-0.646,1.529-1.427,2.039-2.328h-1.594v-1.58h9.92v1.58H459.367z M464.651,129.084h-7.594v-5.811h7.594V129.084z
			 M462.714,124.699h-3.855v0.815h3.855V124.699z M462.714,126.84h-3.855v0.834h3.855V126.84z"/>
		<path fill="#717071" d="M480.966,136.271c0.457,0,0.561-0.237,0.629-1.596c0.311,0.39,0.93,0.693,1.869,0.781
			c-0.256,2.141-0.783,2.752-2.311,2.752h-2.125c-1.953,0-2.43-0.629-2.43-2.598v-4.896h-2.227c-0.34,3.519-1.172,6.306-5.455,7.886
			c-0.236-0.544-0.781-1.342-1.257-1.75c3.755-1.224,4.333-3.366,4.571-6.136h-4.163v-1.971h6.422v-6.133h2.142v6.133h6.44v1.971
			h-4.4v4.879c0,0.611,0.085,0.678,0.662,0.678H480.966z M471.568,128.115c-0.442-0.951-1.512-2.465-2.429-3.585l1.613-0.936
			c0.936,1.038,2.057,2.498,2.566,3.45L471.568,128.115z M482.444,124.479c-0.885,1.326-1.938,2.719-2.787,3.619l-1.768-0.73
			c0.834-0.969,1.853-2.497,2.412-3.669L482.444,124.479z"/>
		<path fill="#717071" d="M455.679,143.326c-0.443,1.174-0.969,2.38-1.598,3.52v11.758h-2.022v-8.564
			c-0.357,0.458-0.731,0.899-1.087,1.292c-0.187-0.511-0.765-1.632-1.104-2.142c1.546-1.562,3.024-4.011,3.875-6.458
			L455.679,143.326z M461.185,149.444c0.832,3.16,2.378,5.913,4.759,7.355c-0.495,0.392-1.175,1.208-1.515,1.771
			c-1.919-1.361-3.229-3.45-4.18-6.016c-0.611,2.156-1.801,4.28-3.942,6.083c-0.392-0.44-1.104-0.985-1.665-1.344
			c2.873-2.395,3.823-5.284,4.129-7.85h-3.891v-2.005h4.011v-0.392v-4.281h2.054v4.298v0.375h4.673v2.005H461.185z M463.672,146.875
			c-0.321-0.799-1.247-1.985-1.892-2.937l1.529-0.867c0.678,0.884,1.624,2.086,1.998,2.886L463.672,146.875z"/>
		<path fill="#717071" d="M474.317,152.826l-1.63,0.426v5.352h-1.919v-4.877l-2.244,0.576l-0.492-2.056
			c0.746-0.136,1.715-0.339,2.736-0.542v-3.738h-0.987c-0.17,0.851-0.374,1.646-0.611,2.26c-0.339-0.153-1.056-0.425-1.427-0.545
			c0.543-1.376,0.866-3.568,1.019-5.642l1.529,0.238c-0.05,0.595-0.118,1.174-0.202,1.769h0.68v-3.297h1.919v3.297h1.461v1.92
			h-1.461v3.313l1.409-0.322L474.317,152.826z M483.595,152.792h-1.63v3.551c0,1.003-0.188,1.53-0.866,1.852
			c-0.646,0.307-1.596,0.358-2.838,0.358c-0.086-0.595-0.357-1.43-0.611-2.007c0.797,0.036,1.717,0.036,1.986,0.036
			c0.256,0,0.324-0.069,0.324-0.291v-3.499h-5.18v-1.853h5.18v-1.19h2.005v1.19h1.63V152.792z M477.819,146.079h-3.195v-1.835h3.195
			v-1.512h2.005v1.512h3.397v1.835h-3.397v1.443h2.82v1.871h-7.391v-1.871h2.565V146.079z M476.987,153.066
			c0.461,0.442,1.383,1.482,1.717,2.039l-1.598,1.038c-0.363-0.673-1.215-1.844-1.615-2.161L476.987,153.066z"/>
		<path fill="#717071" d="M498.929,150.578c-0.682,0.525-0.9,0.65-1.647,1.161c0.661,2.004,2.022,3.686,3.976,4.468
			c-0.458,0.372-1.053,1.155-1.342,1.648c-2.041-0.969-3.349-2.694-4.182-5.007c-0.169,0.12-0.349,0.317-0.52,0.42
			c0.477,2.038,0.028,3.805-0.838,4.519c-0.595,0.611-1.14,0.783-2.021,0.8c-0.375,0.017-0.885,0-1.377-0.017
			c-0.035-0.562-0.205-1.361-0.544-1.921c0.594,0.069,1.138,0.085,1.53,0.085c0.406,0,0.68-0.053,0.915-0.408
			c0.289-0.271,0.493-0.901,0.493-1.717c-1.938,1.326-4.604,2.583-6.864,3.264c-0.22-0.494-0.663-1.224-1.054-1.685
			c2.685-0.578,5.947-2.037,7.63-3.466c-0.068-0.203-0.153-0.423-0.257-0.646c-1.698,1.071-4.178,2.174-6.115,2.771
			c-0.221-0.458-0.645-1.139-1.002-1.563c2.09-0.443,4.876-1.513,6.355-2.499c-0.154-0.187-0.307-0.373-0.477-0.562
			c-1.479,0.781-3.128,1.359-4.725,1.786c-0.186-0.392-0.696-1.19-1.037-1.582c1.922-0.391,3.943-1.034,5.473-1.867h-2.923v-1.718
			h9.497v1.718h-3.771c-0.307,0.271-0.645,0.541-1.019,0.78c0.663,0.611,1.251,1.584,1.591,2.314c1.188-0.854,2.445-1.977,2.928-2.4
			L498.929,150.578z M487.85,147.915h-1.987v-3.841h6.15c-0.117-0.322-0.272-0.646-0.406-0.899l2.141-0.613
			c0.271,0.46,0.561,1.02,0.73,1.513h6.049v3.841h-2.074v-2.006H487.85V147.915z"/>
	</g>
</g>
<g>
	<g>
		<g>
			<path fill-rule="evenodd" clip-rule="evenodd" fill="#3C3A39" d="M889.932,141.619c-0.639-1.429-1.473-2.859-2.541-3.988
				c-3.125-3.309-6.414-3.591-10.316-1.213c-1.355,0.828-2.748,1.654-4.229,2.201c-5.674,2.1-10.939,1.016-15.955-2.156
				c-1.498-0.945-2.914-1.471-4.256-1.599c-0.014,1.306-0.146,2.584-0.375,3.833c0.119,3.246-0.752,6.418-2.254,9.465
				c1.361,0.489,2.688,1.045,3.924,1.729c0.127,0.045,0.262,0.081,0.391,0.132c2.762,1.104,5.557,2.907,7.467,5.242
				c2.305,2.81,3.82,5.771,4.84,9.007c0.111,0,0.225,0,0.332,0v-0.063c5.582,0,11.172,0.183,16.744-0.049
				c5.615-0.238,8.484-3.338,8.648-8.905C892.488,150.556,891.855,145.946,889.932,141.619z"/>
			<path fill-rule="evenodd" clip-rule="evenodd" fill="#3C3A39" d="M880.512,122.392c-0.084,7.354-6.205,13.521-13.469,13.563
				c-7.287,0.042-13.748-6.51-13.666-13.852c0.086-7.219,6.395-13.538,13.559-13.579
				C874.313,108.479,880.592,114.894,880.512,122.392z"/>
			<path fill-rule="evenodd" clip-rule="evenodd" fill="#DEBB31" d="M886.658,139.069c-0.639-1.427-1.475-2.861-2.539-3.987
				c-3.125-3.312-6.414-3.594-10.32-1.214c-1.354,0.825-2.75,1.651-4.225,2.199c-5.674,2.101-10.941,1.018-15.959-2.155
				c-0.369-0.231-0.73-0.432-1.092-0.617c0.074,0.412,0.121,0.844,0.121,1.301c0.004,1.408-0.139,2.781-0.385,4.123
				c0.119,3.238-0.756,6.403-2.254,9.443c1.361,0.489,2.688,1.045,3.922,1.729c0.129,0.045,0.264,0.081,0.393,0.132
				c2.762,1.104,5.557,2.907,7.467,5.242c1.672,2.039,2.926,4.161,3.883,6.407c4.922,0.029,9.848,0.144,14.758-0.065
				c5.615-0.238,8.488-3.339,8.648-8.904C889.215,148.002,888.58,143.398,886.658,139.069z"/>
			<path fill-rule="evenodd" clip-rule="evenodd" fill="#DEBB31" d="M877.238,119.84c-0.084,7.355-6.205,13.522-13.469,13.561
				c-7.285,0.042-13.75-6.506-13.664-13.851c0.08-7.216,6.393-13.537,13.553-13.579C871.039,105.929,877.32,112.344,877.238,119.84z
				"/>
		</g>
		<g>
			<path fill-rule="evenodd" clip-rule="evenodd" fill="#3C3A39" d="M811.734,135.131c-0.92,0.254-1.873,0.684-2.869,1.287
				c-1.354,0.828-2.748,1.654-4.223,2.201c-5.676,2.1-10.939,1.016-15.959-2.156c-4.332-2.735-8.031-2.055-10.996,2.118
				c-1.209,1.701-2.246,3.656-2.813,5.653c-0.797,2.787-1.289,5.705-1.539,8.6c-0.648,7.516,2.764,11.275,10.264,11.421
				c5.047,0.096,10.104,0.018,15.154,0.018v-0.063c0.025,0,0.049,0,0.076,0.002c0.072-2.235,0.783-4.439,2.041-6.379
				c0.412-1.31,0.98-2.61,1.74-3.892c0.309-0.519,0.697-0.961,1.115-1.367c1.365-2.353,3.238-4.307,6.283-4.777
				c3.123-0.482,5.871,0.246,8.379,1.586C814.955,145.278,812.283,140.734,811.734,135.131z"/>
			<path fill-rule="evenodd" clip-rule="evenodd" fill="#3C3A39" d="M812.307,122.392c-0.086,7.354-6.205,13.521-13.469,13.563
				c-7.291,0.042-13.748-6.51-13.664-13.852c0.082-7.219,6.393-13.538,13.555-13.579
				C806.107,108.479,812.389,114.894,812.307,122.392z"/>
			<path fill-rule="evenodd" clip-rule="evenodd" fill="#DEBB31" d="M811.699,134.824c-0.068-0.793,0.059-1.559,0.32-2.271
				c-1.986-0.553-4.098-0.105-6.426,1.314c-1.354,0.825-2.748,1.651-4.227,2.199c-5.672,2.101-10.938,1.018-15.957-2.155
				c-4.332-2.737-8.033-2.054-10.994,2.117c-1.209,1.703-2.248,3.657-2.816,5.653c-0.797,2.788-1.287,5.706-1.535,8.601
				c-0.648,7.515,2.758,11.273,10.264,11.419c5.047,0.098,10.102,0.018,15.154,0.018v-0.061c1.232,0,2.471,0.014,3.705,0.024
				c0.338-1.347,0.904-2.65,1.684-3.851c0.412-1.31,0.98-2.61,1.74-3.892c0.309-0.519,0.697-0.961,1.115-1.367
				c1.365-2.353,3.238-4.307,6.283-4.777c3.123-0.482,5.871,0.244,8.379,1.586C814.891,145.201,812.18,140.571,811.699,134.824z"/>
			<path fill-rule="evenodd" clip-rule="evenodd" fill="#DEBB31" d="M809.031,119.84c-0.082,7.355-6.205,13.522-13.469,13.561
				c-7.285,0.042-13.748-6.506-13.666-13.851c0.086-7.216,6.396-13.537,13.559-13.579
				C802.832,105.929,809.115,112.344,809.031,119.84z"/>
		</g>
		<g>
			<path fill-rule="evenodd" clip-rule="evenodd" fill="#3C3A39" d="M834.379,188.341c-6.115,0-12.232,0.099-18.346-0.022
				c-9.08-0.174-13.207-4.726-12.422-13.82c0.301-3.505,0.896-7.036,1.857-10.413c0.691-2.416,1.945-4.781,3.41-6.842
				c3.586-5.052,8.064-5.877,13.311-2.563c6.074,3.84,12.447,5.152,19.314,2.61c1.789-0.664,3.479-1.663,5.115-2.665
				c4.727-2.879,8.709-2.537,12.492,1.472c1.289,1.36,2.301,3.098,3.072,4.825c2.328,5.239,3.098,10.815,2.932,16.505
				c-0.197,6.738-3.674,10.488-10.469,10.779c-6.746,0.286-13.51,0.06-20.268,0.06C834.379,188.291,834.379,188.316,834.379,188.341
				z"/>
			<path fill-rule="evenodd" clip-rule="evenodd" fill="#3C3A39" d="M850.785,137.647c-0.105,8.903-7.514,16.365-16.305,16.415
				c-8.822,0.053-16.641-7.877-16.545-16.768c0.104-8.735,7.742-16.386,16.41-16.438
				C843.279,120.807,850.883,128.57,850.785,137.647z"/>
			<path fill-rule="evenodd" clip-rule="evenodd" fill="#DEBB31" d="M830.416,185.254c-6.117,0-12.232,0.096-18.344-0.022
				c-9.08-0.177-13.207-4.727-12.426-13.824c0.305-3.503,0.9-7.034,1.861-10.408c0.688-2.416,1.945-4.784,3.41-6.844
				c3.586-5.051,8.064-5.877,13.309-2.561c6.072,3.838,12.449,5.15,19.314,2.604c1.791-0.66,3.479-1.663,5.117-2.663
				c4.725-2.879,8.707-2.537,12.49,1.47c1.291,1.365,2.303,3.1,3.074,4.827c2.33,5.242,3.094,10.815,2.928,16.504
				c-0.195,6.74-3.67,10.492-10.471,10.78c-6.738,0.287-13.508,0.061-20.264,0.061C830.416,185.205,830.416,185.229,830.416,185.254
				z"/>
			<path fill-rule="evenodd" clip-rule="evenodd" fill="#DEBB31" d="M846.818,134.559c-0.1,8.902-7.51,16.367-16.303,16.418
				c-8.82,0.049-16.643-7.88-16.539-16.77c0.098-8.734,7.738-16.388,16.408-16.437C839.316,117.719,846.92,125.483,846.818,134.559z
				"/>
		</g>
	</g>
</g>
</svg>
